<svg width="20" height="20" viewBox="0 0 20 20" fill="none" xmlns="http://www.w3.org/2000/svg">
<<<<<<< HEAD
<path d="M3 20C2.45 20 1.97917 19.8042 1.5875 19.4125C1.19583 19.0208 1 18.55 1 18V6.725C0.7 6.54167 0.458333 6.30417 0.275 6.0125C0.0916667 5.72083 0 5.38333 0 5V2C0 1.45 0.195833 0.979167 0.5875 0.5875C0.979167 0.195833 1.45 0 2 0H18C18.55 0 19.0208 0.195833 19.4125 0.5875C19.8042 0.979167 20 1.45 20 2V5C20 5.38333 19.9083 5.72083 19.725 6.0125C19.5417 6.30417 19.3 6.54167 19 6.725V18C19 18.55 18.8042 19.0208 18.4125 19.4125C18.0208 19.8042 17.55 20 17 20H3V20M3 7V18V18V18H17V18V18V7H3V7M2 5H18V5V5V2V2V2H2V2V2V5V5V5V5M7 12H13V10H7V12V12M10 12.5V12.5V12.5V12.5V12.5V12.5V12.5V12.5V12.5V12.5" fill="#94A3B8"/>
=======
<path d="M2 20C1.45 20 0.979167 19.8042 0.5875 19.4125C0.195833 19.0208 0 18.55 0 18V7C0 6.45 0.195833 5.97917 0.5875 5.5875C0.979167 5.19583 1.45 5 2 5H5C5 3.61667 5.4875 2.4375 6.4625 1.4625C7.4375 0.4875 8.61667 0 10 0C11.3833 0 12.5625 0.4875 13.5375 1.4625C14.5125 2.4375 15 3.61667 15 5H18C18.55 5 19.0208 5.19583 19.4125 5.5875C19.8042 5.97917 20 6.45 20 7V18C20 18.55 19.8042 19.0208 19.4125 19.4125C19.0208 19.8042 18.55 20 18 20H2ZM2 18H18V7H2V18ZM10 12C11.3833 12 12.5625 11.5125 13.5375 10.5375C14.5125 9.5625 15 8.38333 15 7H13C13 7.83333 12.7083 8.54167 12.125 9.125C11.5417 9.70833 10.8333 10 10 10C9.16667 10 8.45833 9.70833 7.875 9.125C7.29167 8.54167 7 7.83333 7 7H5C5 8.38333 5.4875 9.5625 6.4625 10.5375C7.4375 11.5125 8.61667 12 10 12ZM7 5H13C13 4.16667 12.7083 3.45833 12.125 2.875C11.5417 2.29167 10.8333 2 10 2C9.16667 2 8.45833 2.29167 7.875 2.875C7.29167 3.45833 7 4.16667 7 5Z" fill="#94A3B8"/>
>>>>>>> f432eb9f36324a7230d73ef9a4b43d19c1eeb9d7
</svg>
