<svg width="20" height="20" viewBox="0 0 20 20" fill="none" xmlns="http://www.w3.org/2000/svg">
<path d="M4 20C3.45 20 2.97917 19.8042 2.5875 19.4125C2.19583 19.0208 2 18.55 2 18V4H0V2H6V1C6 0.716667 6.09583 0.479167 6.2875 0.2875C6.47917 0.0958333 6.71667 0 7 0H13C13.2833 0 13.5208 0.0958333 13.7125 0.2875C13.9042 0.479167 14 0.716667 14 1V2H20V4H18V18C18 18.55 17.8042 19.0208 17.4125 19.4125C17.0208 19.8042 16.55 20 16 20H4ZM4 4V18H16V4H4ZM6 16H8V6H6V16ZM10 16H12V6H10V16ZM12 6H10H12ZM8 6H6H8Z" fill="#94A3B8"/>
</svg>
