<svg width="103" height="92" viewBox="0 0 103 92" fill="none" xmlns="http://www.w3.org/2000/svg">
<rect width="102.519" height="91.5385" rx="45.7692" fill="#8B4513" fill-opacity="0.05"/>
<path d="M70.9712 67.5385L50.2596 46.7019C47.7244 46.8077 45.3005 47.367 42.988 48.3798C40.6755 49.3926 38.7083 50.7628 37.0866 52.4904L34.5288 49.9038C36.1506 48.2821 38.0449 46.891 40.2115 45.7308C42.3782 44.5705 44.657 43.8237 47.0481 43.4904L37.8654 34.3077C35.9647 35.0545 33.9944 36.0954 31.9543 37.4303C29.9143 38.7652 28.0833 40.2436 26.4616 41.8654L24 39.2788C25.6538 37.625 27.4559 36.1146 29.4062 34.7476C31.3566 33.3806 33.2404 32.2981 35.0577 31.5L29.3269 25.7692L31.0962 24L72.8654 65.7693L70.9712 67.5385ZM51.2116 65.1731C50.1346 65.1731 49.2244 64.7989 48.4808 64.0505C47.7372 63.3021 47.3654 62.3942 47.3654 61.3269C47.3654 60.25 47.7372 59.3397 48.4808 58.5962C49.2244 57.8526 50.1346 57.4808 51.2116 57.4808C52.2885 57.4808 53.1987 57.8526 53.9423 58.5962C54.6859 59.3397 55.0577 60.25 55.0577 61.3269C55.0577 62.3942 54.6859 63.3021 53.9423 64.0505C53.1987 64.7989 52.2885 65.1731 51.2116 65.1731ZM65.9616 51.7404C65.5417 51.3205 65.1859 50.9648 64.8942 50.6731C64.6026 50.3814 64.2468 50.0257 63.8269 49.6058L58.625 44.4038C60.0449 44.7372 61.5825 45.359 63.238 46.2692C64.8935 47.1795 66.4455 48.359 67.8943 49.8077L65.9616 51.7404ZM75.9616 41.8654C72.7532 38.6571 69.0345 36.1467 64.8053 34.3342C60.5761 32.5217 56.0449 31.6154 51.2116 31.6154C50.3366 31.6154 49.4688 31.6467 48.6082 31.7092C47.7476 31.7717 46.9487 31.8654 46.2116 31.9904L43.0096 28.7885C44.1058 28.5128 45.3213 28.3061 46.6563 28.1683C47.9912 28.0304 49.5096 27.9615 51.2116 27.9615C56.5834 27.9615 61.5914 28.9615 66.2356 30.9615C70.8798 32.9615 74.9744 35.734 78.5193 39.2788L75.9616 41.8654Z" fill="#8B4513"/>
</svg>
