<svg width="88" height="90" viewBox="0 0 88 90" fill="none" xmlns="http://www.w3.org/2000/svg">
<rect width="87.9" height="90" rx="43.95" fill="#FEF2F2"/>
<path d="M57.7 65.95C57.4333 65.95 57.1833 65.9083 56.95 65.825C56.7167 65.7417 56.5 65.6 56.3 65.4L46.1 55.2C45.9 55 45.7583 54.7833 45.675 54.55C45.5917 54.3167 45.55 54.0667 45.55 53.8C45.55 53.5333 45.5917 53.2833 45.675 53.05C45.7583 52.8167 45.9 52.6 46.1 52.4L50.35 48.15C50.55 47.95 50.7667 47.8083 51 47.725C51.2333 47.6417 51.4833 47.6 51.75 47.6C52.0167 47.6 52.2667 47.6417 52.5 47.725C52.7333 47.8083 52.95 47.95 53.15 48.15L63.35 58.35C63.55 58.55 63.6917 58.7667 63.775 59C63.8583 59.2333 63.9 59.4833 63.9 59.75C63.9 60.0167 63.8583 60.2667 63.775 60.5C63.6917 60.7333 63.55 60.95 63.35 61.15L59.1 65.4C58.9 65.6 58.6833 65.7417 58.45 65.825C58.2167 65.9083 57.9667 65.95 57.7 65.95ZM57.7 61.2L59.15 59.75L51.8 52.4L50.35 53.85L57.7 61.2ZM30.25 66C29.9833 66 29.725 65.95 29.475 65.85C29.225 65.75 29 65.6 28.8 65.4L24.6 61.2C24.4 61 24.25 60.775 24.15 60.525C24.05 60.275 24 60.0167 24 59.75C24 59.4833 24.05 59.2333 24.15 59C24.25 58.7667 24.4 58.55 24.6 58.35L35.2 47.75H39.45L41.15 46.05L32.9 37.8H30.05L24 31.75L29.65 26.1L35.7 32.15V35L43.95 43.25L49.75 37.45L47.6 35.3L50.4 32.5H44.75L43.35 31.1L50.45 24L51.85 25.4V31.05L54.65 28.25L61.75 35.35C62.3167 35.9167 62.75 36.5583 63.05 37.275C63.35 37.9917 63.5 38.75 63.5 39.55C63.5 40.35 63.35 41.1167 63.05 41.85C62.75 42.5833 62.3167 43.2333 61.75 43.8L57.5 39.55L54.7 42.35L52.6 40.25L42.25 50.6V54.8L31.65 65.4C31.45 65.6 31.2333 65.75 31 65.85C30.7667 65.95 30.5167 66 30.25 66ZM30.25 61.2L38.75 52.7V51.25H37.3L28.8 59.75L30.25 61.2ZM30.25 61.2L28.8 59.75L29.55 60.45L30.25 61.2ZM57.7 61.2L59.15 59.75L57.7 61.2Z" fill="#EF4444"/>
</svg>
